<svg width="89" height="89" fill="none" xmlns="http://www.w3.org/2000/svg"><circle cx="44.407" cy="44.407" r="44.407" fill="#555A60"/><path d="M68.182 39.315h-.62c-1.855 2.48-4.507 4.25-7.601 5.135-.619.177-1.15.266-1.768.354 0 1.682-.354 3.276-.884 4.87a8.416 8.416 0 01-.795 1.859c-1.592 3.187-4.155 5.755-7.249 7.26l-1.856.797c-1.591.53-3.36.796-5.127.796-1.768 0-3.536-.265-5.127-.885-.089 0-.177-.088-.265-.088l-4.862 4.87a26.698 26.698 0 003.978 1.593c.618.177 1.06.796 1.06 1.505v3.01c0 .885.708 1.505 1.503 1.505h7.249a1.49 1.49 0 001.502-1.505v-3.01c0-.709.442-1.24 1.061-1.505a20.153 20.153 0 004.508-1.86c.619-.354 1.326-.177 1.768.266l2.122 2.125c.618.62 1.59.62 2.121 0l5.127-5.135c.619-.62.619-1.594 0-2.125l-2.121-2.125c-.442-.442-.62-1.24-.266-1.77a20.218 20.218 0 001.857-4.516c.176-.62.795-1.062 1.502-1.062h3.094c.884 0 1.503-.709 1.503-1.505v-7.26c.177-.974-.53-1.594-1.414-1.594zM59.43 22.76l-3.977 3.984 1.326 3.187 3.182 1.328 3.978-3.984-4.508-4.515zm-13.524-5.844h-7.249c-.795 0-1.503.709-1.503 1.506v3.098c0 .709-.442 1.24-1.06 1.417a20.149 20.149 0 00-4.509 1.859c-.618.354-1.326.177-1.768-.266l-2.121-2.125c-.619-.62-1.591-.62-2.122 0l-5.126 5.136c-.62.62-.62 1.593 0 2.124l2.121 2.125c.442.443.619 1.24.265 1.771a20.213 20.213 0 00-1.856 4.515c-.177.62-.796 1.063-1.414 1.063H16.38c-.795 0-1.502.708-1.502 1.505v7.26a1.49 1.49 0 001.502 1.505h3.094c.707 0 1.238.442 1.415 1.062a26.712 26.712 0 001.59 3.984l4.862-4.87c0-.088-.088-.176-.088-.265-.619-1.328-.884-3.099-.884-4.87 0-1.77.265-3.54.884-5.134a8.41 8.41 0 01.796-1.86c1.59-3.187 4.154-5.754 7.248-7.26l1.856-.796c1.503-.531 3.183-.797 4.862-.885.089-.532.177-1.152.354-1.683v-.088c.795-3.099 2.652-5.755 5.127-7.703v-.531c-.089-.885-.708-1.594-1.591-1.594z" fill="#FFAE00"/><path d="M67.386 33.471L68.8 28.16c.088-.265 0-.442-.177-.62a.693.693 0 00-.972 0l-7.072 7.083-5.922-2.567-2.564-6.02 7.072-7.083a.696.696 0 000-.974c-.177-.089-.442-.177-.619-.089l-5.303 1.417c-3.978 1.062-7.16 4.25-8.221 8.233-.707 2.657-.442 5.401.707 7.88l-22.54 22.488c-1.945-.266-4.067.354-5.57 1.86-2.563 2.567-2.563 6.728 0 9.384 2.564 2.568 6.719 2.568 9.37 0 1.503-1.505 2.122-3.63 1.857-5.578l22.452-22.488c2.387 1.151 5.216 1.417 7.867.709a11.82 11.82 0 008.221-8.323zm-47.291 33.2c-1.238-1.239-1.238-3.275 0-4.426 1.237-1.24 3.27-1.24 4.42 0 1.149 1.24 1.237 3.276 0 4.426a3.092 3.092 0 01-4.42 0z" fill="#FFAE00"/></svg>