<svg width="89" height="89" fill="none" xmlns="http://www.w3.org/2000/svg"><circle cx="44.029" cy="44.029" r="44.029" fill="#555A60"/><path d="M68.47 42.541l-6.208-.848-2.746-6.427c-.716-1.758-2.387-2.79-4.357-2.79h-7.043l.298-2.122c.12-.788-.418-1.394-1.194-1.394H26.15c-.775 0-1.432.606-1.551 1.394l-.418 3.032h5.371c.598 0 1.135.485 1.135 1.152 0 .667-.478 1.152-1.135 1.152h-9.907c-.657 0-1.134.485-1.134 1.152 0 .667.477 1.152 1.134 1.152H31.82c.597 0 1.134.485 1.134 1.152 0 .667-.537 1.152-1.134 1.152H14.69c-.598 0-1.135.485-1.135 1.152 0 .606.538 1.152 1.135 1.152H28c.657 0 1.134.485 1.134 1.152 0 .607-.477 1.152-1.134 1.152H17.018c-.597 0-1.134.485-1.134 1.152 0 .607.478 1.152 1.134 1.152h5.253l-.776 5.518c-.12.667.358 1.212 1.015 1.212h2.327c-.179 2.85 1.85 5.093 4.716 5.093 2.864 0 5.49-2.243 6.147-5.093h18.802c-.179 2.85 1.85 5.093 4.715 5.093 2.865 0 5.492-2.243 6.148-5.093h1.254c1.313 0 2.566-1.09 2.746-2.485l.895-6.427c.12-1.274-.597-2.304-1.79-2.486zM33.193 53.455c-.239 1.637-1.672 2.91-3.283 2.91-1.612 0-2.686-1.334-2.448-2.91.239-1.637 1.672-2.91 3.283-2.91 1.612 0 2.687 1.273 2.448 2.91zM50.026 41.51c-.12 0-.239-.122-.239-.243l.716-5.093c0-.121.12-.242.299-.242h3.94c.715 0 1.372.425 1.67 1.091l1.791 4.184c.06.182-.06.364-.238.364h-7.94v-.062zm12.833 11.944c-.239 1.637-1.672 2.91-3.283 2.91-1.612 0-2.686-1.334-2.448-2.91.239-1.637 1.672-2.91 3.283-2.91 1.552 0 2.686 1.273 2.448 2.91z" fill="#FFAE00"/></svg>