<svg width="89" height="89" fill="none" xmlns="http://www.w3.org/2000/svg"><circle cx="44.029" cy="44.029" r="44.029" fill="#555A60"/><path fill-rule="evenodd" clip-rule="evenodd" d="M23.917 28.308c.03 2.325 2.896 4.016 4.68 4.824 6.815 3.09 17.979 3.09 24.795 0 2.891-1.31 4.68-3.024 4.68-4.826 0-1.803-1.789-3.515-4.68-4.826-6.816-3.09-17.98-3.09-24.795 0-1.726.783-4.71 2.542-4.68 4.828zm41.886 16.769c0-.596.472-1.08 1.055-1.08.582 0 1.055.483 1.055 1.08v11.699l.791-1.194c.326-.492.978-.62 1.459-.287.48.333.605 1.001.28 1.493l-2.703 4.077a1.038 1.038 0 01-1.75.019l-2.717-4.096c-.325-.491-.2-1.16.28-1.493a1.036 1.036 0 011.46.287l.79 1.194v-11.7zm-7.73-4.594c-.986.933-2.284 1.766-3.833 2.468-7.358 3.335-19.134 3.335-26.492 0-1.548-.702-2.847-1.534-3.832-2.467v3.513c0 1.803 1.789 3.515 4.68 4.826 6.816 3.09 17.98 3.09 24.795 0 2.892-1.31 4.68-3.024 4.68-4.826l.001-3.514zm-34.155-4.332v-3.513c.984.933 2.283 1.766 3.832 2.467 7.358 3.336 19.134 3.336 26.492 0 1.548-.701 2.847-1.534 3.832-2.468v3.514c0 1.803-1.789 3.515-4.68 4.826-6.816 3.09-17.98 3.09-24.795 0-2.893-1.311-4.681-3.023-4.681-4.826zm34.154 12.176v3.514c0 1.803-1.788 3.515-4.68 4.826-6.815 3.09-17.979 3.09-24.795 0-2.891-1.311-4.68-3.024-4.68-4.826v-3.514c.985.933 2.284 1.766 3.833 2.468 7.358 3.336 19.134 3.336 26.492 0 1.547-.701 2.846-1.534 3.83-2.468zm0 7.846c-.984.933-2.283 1.766-3.832 2.468-7.358 3.335-19.134 3.335-26.492 0-1.548-.701-2.847-1.534-3.832-2.468v3.514c0 1.803 1.789 3.515 4.68 4.826 6.816 3.09 17.98 3.09 24.795 0 2.892-1.311 4.68-3.024 4.68-4.826l.001-3.514zM45.018 25.221a1.09 1.09 0 01-.44 1.454 1.04 1.04 0 01-1.422-.45c-.509-.983-1.937-1.152-2.9-.935-.41.093-1.26.4-1.228.953.039.645 1.645.905 2.11.966 1.856.248 4.234.956 4.277 3.284.035 1.893-1.796 2.758-3.364 2.996v.2c0 .596-.472 1.08-1.055 1.08a1.067 1.067 0 01-1.055-1.08v-.219c-1.44-.25-2.854-1.046-3.318-2.554a1.082 1.082 0 01.692-1.35 1.048 1.048 0 011.318.709c.277.904 1.7 1.151 2.483 1.137.534-.01 2.208-.266 2.197-.884-.124-.874-1.747-1.092-2.44-1.185-1.701-.226-3.821-.883-3.946-2.973-.108-1.806 1.453-2.91 3.014-3.216v-.23c0-.595.472-1.078 1.055-1.078.582 0 1.055.482 1.055 1.079v.222c1.223.232 2.356.894 2.967 2.074z" fill="#FFAE00"/></svg>