<svg width="89" height="89" fill="none" xmlns="http://www.w3.org/2000/svg"><circle cx="44.407" cy="44.407" r="44.407" fill="#555A60"/><circle cx="44.407" cy="44.407" r="44.407" fill="#555A60"/><circle cx="44.407" cy="44.407" r="44.407" fill="#555A60"/><path d="M48.464 49.538h-17.64V44.15h17.479c1.427 0 2.563-.223 3.408-.668.86-.445 1.48-1.06 1.865-1.842.383-.798.575-1.704.575-2.717 0-.998-.207-1.912-.621-2.74-.4-.845-1.021-1.52-1.866-2.027-.828-.522-1.888-.783-3.177-.783h-6.103V61.49h-6.908V27.962h12.988c2.64 0 4.897.468 6.77 1.404 1.888.937 3.339 2.226 4.352 3.869 1.013 1.642 1.52 3.523 1.52 5.642 0 2.226-.522 4.137-1.566 5.733-1.029 1.597-2.487 2.818-4.375 3.662-1.873.844-4.107 1.266-6.701 1.266zm1.266 1.889v5.388H30.825v-5.389H49.73z" fill="#FFAE00"/></svg>