<svg width="89" height="89" fill="none" xmlns="http://www.w3.org/2000/svg"><circle cx="44.029" cy="44.029" r="44.029" fill="#595959"/><path d="M46.435 54.422l.438-.326.384-.37 1.144-1.25c.515-.56 1.107-.983 3.863-1.63l1.418.054.276.01a3.923 3.923 0 001.609-.266c.482-.19.927-.488 1.341-.902.423-.43.726-.89.919-1.387a4.084 4.084 0 00.261-1.632l-.061-1.7a5.206 5.206 0 01.36-2.136 5.12 5.12 0 011.247-1.797l1.229-1.157c.422-.397.742-.847.953-1.34.21-.49.318-1.032.318-1.62 0-.587-.108-1.13-.318-1.62a4.012 4.012 0 00-.953-1.34l-1.23-1.157a5.093 5.093 0 01-1.24-1.782 5.157 5.157 0 01-.367-2.15l.061-1.7a4.075 4.075 0 00-.261-1.632 3.997 3.997 0 00-.905-1.373 3.93 3.93 0 00-1.355-.918 3.93 3.93 0 00-1.608-.265l-1.676.063a5.01 5.01 0 01-2.107-.366 5.048 5.048 0 01-1.773-1.263l-1.142-1.246a3.96 3.96 0 00-1.322-.967 3.913 3.913 0 00-1.598-.322 3.92 3.92 0 00-1.598.322 3.965 3.965 0 00-1.322.967l-1.14 1.246a5.035 5.035 0 01-1.746 1.252 4.957 4.957 0 01-2.134.377l-1.676-.062a3.918 3.918 0 00-1.609.265 3.951 3.951 0 00-1.342.902c-.422.43-.726.89-.918 1.389a4.084 4.084 0 00-.262 1.63l.062 1.7a5.204 5.204 0 01-.361 2.136 5.12 5.12 0 01-1.246 1.797l-1.23 1.157a4.017 4.017 0 00-.953 1.34 4.067 4.067 0 00-.317 1.62c0 .588.107 1.13.317 1.62.212.493.532.943.954 1.34l1.229 1.157c.554.523.97 1.122 1.24 1.783a5.16 5.16 0 01.367 2.15l-.061 1.7c-.021.582.067 1.13.262 1.632.192.498.495.959.904 1.373.406.414.862.721 1.356.917a3.917 3.917 0 001.608.265l.285-.01 1.391-.052a5.008 5.008 0 012.107.366c.667.28 1.258.701 1.773 1.263l1.719 1.772.092.068.11.075c.177.12.358.22.543.297a3.913 3.913 0 001.598.322 3.92 3.92 0 001.598-.322c.17-.075.337-.164.497-.267h-.001zm1.373.265a4.94 4.94 0 01-.474.412l3.225 13.96 2.953-6.27a.528.528 0 01.71-.244l5.83 2.923-6.736-13.508-4.13 1.237-1.378 1.49zm-6.464.41a4.626 4.626 0 01-.22-.178l-.477-.46-1.145-1.25a3.978 3.978 0 00-1.401-1.001 3.97 3.97 0 00-1.666-.287l-1.073.04-6.735 13.506 5.829-2.923a.528.528 0 01.71.243l2.953 6.268 3.225-13.957zm-7.632-18.123a10.82 10.82 0 013.112-7.617c1.926-1.95 4.582-3.158 7.516-3.158 2.933 0 5.59 1.207 7.513 3.155a10.822 10.822 0 013.115 7.62c0 2.975-1.19 5.667-3.113 7.617a10.527 10.527 0 01-15.03 0 10.817 10.817 0 01-3.113-7.617zm3.863-6.858a9.74 9.74 0 00-2.8 6.858c0 2.676 1.072 5.1 2.802 6.855a9.471 9.471 0 0013.525 0 9.734 9.734 0 002.802-6.855 9.739 9.739 0 00-2.8-6.858 9.476 9.476 0 00-13.529 0z" fill="#FFAE00"/></svg>