<svg width="280" height="51" fill="none" xmlns="http://www.w3.org/2000/svg"><path d="M20.432 48.038H0V3.028h20.432v45.01z" fill="#3B7DEF"/><path d="M51.585 29.083H22.512v-.912h29.073v.912zm-.13 2.866v.933H22.512v-.933h28.943zM22.512 36.66h29.073v-.911H22.512v.911zm0 3.8h29.073v-.912H22.512v.912zm29.204 2.888v.912H22.512v-.912h29.204zM22.512 48.06h29.29v-.912h-29.29v.912z" fill="#fff"/><path d="M67.523 48.06h-.912V3.939H23.424v24.449h-.912V3.028h45.01V48.06z" fill="#fff"/><path d="M63.72 48.06h-.912V7.739H27.221v20.714h-.912V6.805l37.41.022V48.06z" fill="#fff"/><path d="M59.925 48.06h-.912V11.539H31.025v16.827h-.912V10.605h29.812V48.06z" fill="#fff"/><path d="M56.125 48.06h-.912V15.317h-20.41v13.006h-.912V14.405h22.234V48.06z" fill="#fff"/><path d="M52.322 48.06h-.912V19.116H38.6v9.293h-.913V18.204h14.657l-.022 29.856zm32.545-31.925h4.812l-2.35-6.51h-.113l-2.35 6.51zm-7.643 8.35L84.867 4.67h4.812l7.643 19.816h-4.53l-1.698-4.53h-7.643l-1.698 4.53h-4.53zm23.487 0V4.67h8.351c2.095 0 3.793.623 5.096 1.869 1.321 1.245 1.981 2.84 1.981 4.784s-.66 3.538-1.981 4.784c-1.303 1.245-3.001 1.868-5.096 1.868h-4.104v6.51h-4.247zm4.247-10.473h3.963c.849 0 1.528-.245 2.038-.736.528-.51.792-1.16.792-1.953 0-.793-.264-1.435-.792-1.925-.51-.51-1.189-.765-2.038-.765h-3.963v5.379zm12.601 10.474l6.794-10.333-6.228-9.483h4.954l4.048 6.511h.113l4.048-6.51h4.954l-6.228 9.482 6.794 10.333h-4.954l-4.614-7.36h-.113l-4.614 7.36h-4.954zm22.496 0V4.67h4.246v12.74l9.625-12.739h3.821v19.816h-4.246v-12.74l-9.625 12.739h-3.821zm27.166 0V8.633h-5.661V4.67h15.569v3.963h-5.661v15.853h-4.247zm13.725 0V4.67h14.72v3.963h-10.473v3.822h8.209v3.822h-8.209v4.246h10.756v3.963h-15.003zm19.534 0V4.67h4.246v8.493l7.643-8.493h5.096l-7.36 8.21 7.926 11.606h-4.954l-5.803-8.493-2.548 2.69v5.803h-4.246z" fill="#fff"/><path d="M224.689 24.486V8.633h-5.662V4.67h15.569v3.963h-5.661v15.853h-4.246zm13.724 0V4.67h4.247v12.74l9.624-12.739h3.822v19.816h-4.246v-12.74l-9.625 12.739h-3.822zm23.487 0V4.67h8.351c1.925 0 3.463.51 4.614 1.529 1.17 1 1.755 2.236 1.755 3.708 0 1.284-.453 2.36-1.359 3.227-.434.397-.877.69-1.33.878.66.189 1.274.51 1.84.962 1.227 1.038 1.84 2.322 1.84 3.85 0 1.585-.623 2.925-1.868 4.02-1.227 1.095-2.869 1.642-4.926 1.642H261.9zm4.246-3.68h4.388c.83 0 1.481-.217 1.953-.651.491-.434.736-1.02.736-1.755 0-.736-.245-1.321-.736-1.755-.472-.434-1.123-.652-1.953-.652h-4.388v4.813zm0-8.493h3.822c.698 0 1.245-.179 1.642-.537.415-.378.622-.859.622-1.444s-.207-1.057-.622-1.415c-.397-.378-.944-.567-1.642-.567h-3.822v3.963zM138.339 32.312H77.465v-2.624h60.874v2.624z" fill="#3B7DEF"/><path d="M278.698 32.312H144.594v-2.624h134.104v2.624zM78.365 46.099l1.062-1.062c.179.236.396.439.65.609a3.436 3.436 0 001.968.594c.68 0 1.213-.155 1.6-.467.396-.32.594-.708.594-1.16 0-.416-.198-.779-.595-1.09-.396-.312-.929-.467-1.599-.467h-1.274V41.57h1.274c.566 0 1.014-.133 1.345-.397.33-.264.495-.585.495-.962 0-.368-.165-.68-.495-.934-.321-.265-.77-.397-1.345-.397-.623 0-1.198.18-1.727.538-.207.132-.41.307-.608.524l-1.062-1.062a3.87 3.87 0 01.878-.707 4.751 4.751 0 012.52-.708c1.056 0 1.886.25 2.49.75.604.5.906 1.123.906 1.868 0 .68-.26 1.25-.778 1.713a3.84 3.84 0 01-.779.481c.35.123.665.293.948.51.642.49.963 1.123.963 1.896 0 .812-.345 1.51-1.033 2.095-.69.585-1.595.878-2.718.878-1.057 0-1.981-.26-2.774-.779a3.975 3.975 0 01-.906-.778zm8 1.415l3.963-9.908h1.698l3.964 9.908h-1.628l-.991-2.547h-4.388l-.99 2.547h-1.628zm3.184-3.963h3.256l-1.628-4.105-1.628 4.105zm9.557 2.548h2.548c.453 0 .835-.156 1.146-.467.321-.321.482-.708.482-1.16 0-.454-.161-.836-.482-1.147a1.534 1.534 0 00-1.146-.482h-2.548V46.1zm-1.557 1.415v-9.908h6.511v1.487h-4.954v2.335h2.548c.915 0 1.675.293 2.279.878.604.585.905 1.306.905 2.165s-.301 1.58-.905 2.166c-.604.585-1.364.877-2.279.877h-4.105zm11.395-7.558c-.708.708-1.062 1.576-1.062 2.604 0 1.029.354 1.902 1.062 2.619.717.707 1.59 1.061 2.618 1.061 1.029 0 1.897-.354 2.604-1.061.718-.717 1.076-1.59 1.076-2.619 0-1.028-.358-1.896-1.076-2.604-.707-.717-1.575-1.076-2.604-1.076-1.028 0-1.901.359-2.618 1.076zm-1.119 6.228c-1-.991-1.5-2.199-1.5-3.624 0-1.425.5-2.628 1.5-3.609 1.01-.99 2.256-1.486 3.737-1.486 1.482 0 2.722.495 3.723 1.486 1.009.981 1.514 2.184 1.514 3.61 0 1.424-.505 2.632-1.514 3.623-1.001.981-2.241 1.472-3.723 1.472-1.481 0-2.727-.491-3.737-1.472zm12.726 1.33v-8.421h-2.972v-1.487h7.501v1.487h-2.972v8.421h-1.557zm4.115 0l3.963-9.908h1.699l3.963 9.908h-1.628l-.991-2.547h-4.387l-.991 2.547h-1.628zm3.185-3.963h3.255l-1.628-4.105-1.627 4.105zm10.543 3.963v-9.908h3.963c.868 0 1.58.255 2.137.765.557.51.835 1.127.835 1.854 0 .585-.203 1.1-.608 1.543a1.881 1.881 0 01-.595.438 2.5 2.5 0 01.849.538c.566.491.85 1.114.85 1.869 0 .792-.312 1.476-.935 2.052-.613.566-1.387.85-2.321.85h-4.175zm1.557-1.345h2.618c.5 0 .906-.155 1.217-.466.321-.312.482-.699.482-1.161 0-.462-.161-.85-.482-1.16-.311-.312-.717-.468-1.217-.468h-2.618v3.255zm0-4.529h2.406c.424 0 .764-.122 1.019-.368.264-.255.396-.58.396-.976 0-.397-.132-.718-.396-.963-.255-.255-.595-.382-1.019-.382h-2.406v2.69zm11.035 5.874v-9.908h1.557v4.813l4.458-4.813h1.982l-3.822 4.105 4.105 5.803h-1.911l-3.255-4.67-1.557 1.698v2.972h-1.557zm8.415 0l3.963-9.908h1.699l3.963 9.908h-1.628l-.991-2.547h-4.387l-.991 2.547h-1.628zm3.185-3.963h3.255l-1.627-4.105-1.628 4.105zm6.584 3.963l4.105-5.803-3.822-4.105h1.982l3.892 4.176v-4.176h1.557v4.176l3.892-4.176h1.982l-3.822 4.105 4.105 5.803h-1.911l-3.255-4.67-.991 1.06v3.61h-1.557v-3.61l-.991-1.06-3.255 4.67h-1.911zm13.878 2.123v-3.609h.566c.321-.311.604-.722.849-1.231.566-1.114.849-2.52.849-4.218v-2.973h6.44v8.422h1.203v3.61h-1.556v-2.124h-6.794v2.123h-1.557zm2.264-3.609h4.883v-6.935h-3.326v1.486c0 1.642-.259 3.048-.778 4.218-.246.519-.505.929-.779 1.231zm11.389-6.072c-.708.708-1.062 1.576-1.062 2.604 0 1.029.354 1.902 1.062 2.619.717.707 1.59 1.061 2.618 1.061 1.029 0 1.897-.354 2.604-1.061.718-.717 1.076-1.59 1.076-2.619 0-1.028-.358-1.896-1.076-2.604-.707-.717-1.575-1.076-2.604-1.076-1.028 0-1.901.359-2.618 1.076zm-1.118 6.228c-1.001-.991-1.501-2.199-1.501-3.624 0-1.425.5-2.628 1.501-3.609 1.009-.99 2.255-1.486 3.736-1.486 1.482 0 2.722.495 3.723 1.486 1.009.981 1.514 2.184 1.514 3.61 0 1.424-.505 2.632-1.514 3.623-1.001.981-2.241 1.472-3.723 1.472-1.481 0-2.727-.491-3.736-1.472zm11.161 1.33v-9.908h1.557v7.29l5.45-7.29h1.415v9.908h-1.557v-7.29l-5.449 7.29h-1.416zm2.124-13.163h1.061a.96.96 0 00.283.708.962.962 0 00.708.283.962.962 0 00.708-.283.963.963 0 00.283-.708h1.061c0 .566-.193 1.038-.58 1.415-.387.378-.878.567-1.472.567-.595 0-1.085-.19-1.472-.567-.387-.377-.58-.849-.58-1.415zm10.684 15.286v-3.609h.566c.321-.311.604-.722.849-1.231.567-1.114.85-2.52.85-4.218v-2.973h6.44v8.422h1.203v3.61h-1.557v-2.124h-6.794v2.123h-1.557zm2.265-3.609h4.883v-6.935h-3.326v1.486c0 1.642-.26 3.048-.779 4.218-.245.519-.505.929-.778 1.231zm9.407 1.486v-9.908h7.006v1.487h-5.45v2.547h4.317v1.486h-4.317v2.902h5.591v1.486h-7.147zm11.045 0v-8.421h-2.972v-1.487h7.501v1.487h-2.972v8.421h-1.557zm4.115 0l3.963-9.908h1.699l3.963 9.908h-1.628l-.991-2.547h-4.387l-.991 2.547h-1.628zm3.185-3.963h3.255l-1.627-4.105-1.628 4.105zm6.513 3.892v-1.415c.095.038.17.061.227.07.17.048.354.072.552.072.255 0 .476-.071.665-.213.198-.15.382-.415.552-.792.179-.378.316-.949.411-1.713.094-.774.141-1.731.141-2.873v-2.973h6.723v9.908h-1.557v-8.421h-3.609v1.486a24.42 24.42 0 01-.156 2.958c-.094.84-.231 1.52-.41 2.038-.17.52-.387.939-.651 1.26-.264.311-.543.528-.835.65a2.66 2.66 0 01-.991.17 2.63 2.63 0 01-.764-.098l-.298-.114zm12.102.071v-9.908h1.557v7.29l5.449-7.29h1.416v9.908h-1.557v-7.29l-5.45 7.29h-1.415z" fill="#fff"/></svg>