<svg width="124" height="118" fill="none" xmlns="http://www.w3.org/2000/svg"><path d="M37.021 82.08H0V.523h37.021V82.08z" fill="#3B7DEF"/><path d="M93.492 47.735h-52.68v-1.652h52.68v1.652zm-.236 5.194v1.691H40.812v-1.69h52.444zm-52.443 8.538h52.679v-1.652h-52.68v1.652zm0 6.883h52.679v-1.653h-52.68v1.653zm52.915 5.233v1.652H40.813v-1.652h52.915zm-52.915 8.538h53.072V80.47H40.812v1.652z" fill="#fff"/><path d="M122.369 82.12h-1.652V2.176H42.465v44.3h-1.653V.522h81.557V82.12z" fill="#fff"/><path d="M115.482 82.12h-1.652V9.06H49.348v37.534h-1.653V7.369l67.787.04v74.71z" fill="#fff"/><path d="M108.595 82.12h-1.652V15.948H56.231v30.49h-1.653V14.255h54.017V82.12z" fill="#fff"/><path d="M101.716 82.118h-1.652V22.79H63.082v23.566H61.43V21.138h40.286v60.98z" fill="#fff"/><path d="M94.83 82.12h-1.653V29.675H69.965v16.838h-1.653v-18.49H94.87l-.04 54.095z" fill="#fff"/><path d="M37.021 104.585H0v-1.613h37.021v1.613z" fill="#3B7DEF"/><path d="M122.35 104.585H40.793v-1.613h81.557v1.613zM4.96 94.092h2.942L6.466 90.11h-.07L4.96 94.092zM.286 99.198L4.96 87.081h2.942l4.674 12.117h-2.77l-1.038-2.77H4.094l-1.039 2.77H.285zm14.363 0V87.081h5.107c1.28 0 2.32.38 3.116 1.142.807.762 1.211 1.737 1.211 2.926 0 1.188-.404 2.164-1.211 2.925-.797.762-1.835 1.143-3.116 1.143h-2.51v3.981h-2.597zm2.597-6.405h2.423c.52 0 .935-.15 1.246-.45.323-.311.485-.71.485-1.194 0-.485-.162-.877-.485-1.177-.311-.312-.727-.468-1.246-.468h-2.424v3.29zm7.706 6.405l4.154-6.318-3.808-5.8h3.029l2.475 3.982h.07l2.475-3.981h3.03l-3.809 5.799 4.155 6.318h-3.03l-2.821-4.5h-.07l-2.821 4.5h-3.03zm13.756 0V87.081h2.597v7.79l5.885-7.79h2.337v12.117h-2.596v-7.79l-5.886 7.79h-2.337zm16.613 0v-9.694h-3.462v-2.423h9.52v2.423h-3.462v9.694h-2.596zm8.393 0V87.081h9.001v2.423H66.31v2.337h5.02v2.337h-5.02v2.597h6.578v2.423h-9.174zm11.945 0V87.081h2.596v5.193l4.674-5.193h3.116l-4.5 5.02 4.846 7.097h-3.029l-3.549-5.193-1.558 1.645v3.548H75.66z" fill="#fff"/><path d="M90.463 99.198v-9.694H87v-2.423h9.52v2.423h-3.46v9.694h-2.596zm8.393 0V87.081h2.596v7.79l5.886-7.79h2.337v12.117h-2.597v-7.79l-5.885 7.79h-2.337zm14.362 0V87.081h5.107c1.177 0 2.118.311 2.822.934.715.612 1.073 1.368 1.073 2.268 0 .785-.277 1.443-.831 1.974a2.83 2.83 0 01-.814.536c.404.116.779.312 1.126.589.75.635 1.125 1.42 1.125 2.354 0 .97-.381 1.789-1.143 2.458-.75.67-1.754 1.004-3.012 1.004h-5.453zm2.597-2.25h2.683c.508 0 .906-.133 1.194-.398.301-.266.451-.623.451-1.074 0-.45-.15-.807-.451-1.073-.288-.265-.686-.398-1.194-.398h-2.683v2.943zm0-5.193h2.337c.427 0 .762-.11 1.004-.33a1.14 1.14 0 00.381-.882 1.09 1.09 0 00-.381-.866c-.242-.23-.577-.346-1.004-.346h-2.337v2.424z" fill="#3B7DEF"/><path d="M.767 113.332l.649-.649c.11.144.242.268.398.372a2.1 2.1 0 001.203.363c.416 0 .742-.095.978-.285.243-.197.364-.433.364-.71 0-.254-.121-.476-.364-.667-.242-.19-.568-.285-.978-.285h-.779v-.909h.78c.345 0 .62-.081.822-.242.201-.162.302-.358.302-.589 0-.225-.1-.415-.303-.571-.196-.162-.47-.242-.822-.242-.38 0-.733.109-1.056.328a1.87 1.87 0 00-.372.321l-.649-.649a2.33 2.33 0 01.537-.433 2.901 2.901 0 011.54-.433c.647 0 1.154.153 1.524.459.369.306.554.686.554 1.142 0 .416-.16.765-.477 1.048a2.375 2.375 0 01-.476.294c.214.075.407.179.58.311.393.3.589.687.589 1.16 0 .496-.21.923-.632 1.281-.421.358-.975.537-1.662.537-.646 0-1.211-.159-1.696-.476a2.438 2.438 0 01-.554-.476zm4.892.865l2.423-6.058h1.039l2.423 6.058h-.995l-.606-1.558H7.26l-.606 1.558H5.66zm1.947-2.423h1.991l-.995-2.51-.996 2.51zm5.844 1.558h1.558c.277 0 .51-.095.701-.286a.967.967 0 00.295-.71.94.94 0 00-.295-.701.94.94 0 00-.7-.294H13.45v1.991zm-.952.865v-6.058h3.982v.908h-3.03v1.428h1.558c.56 0 1.024.179 1.394.537.37.358.554.799.554 1.324s-.185.967-.554 1.325c-.37.357-.834.536-1.394.536h-2.51zm6.968-4.622c-.433.433-.649.964-.649 1.593s.216 1.163.65 1.601a2.19 2.19 0 001.6.649c.63 0 1.16-.216 1.593-.649.439-.438.658-.972.658-1.601s-.22-1.16-.658-1.593a2.152 2.152 0 00-1.593-.657 2.18 2.18 0 00-1.6.657zm-.684 3.809c-.611-.606-.917-1.345-.917-2.216 0-.871.306-1.607.917-2.207.618-.606 1.38-.909 2.285-.909.906 0 1.665.303 2.277.909.617.6.926 1.336.926 2.207a2.99 2.99 0 01-.926 2.216c-.612.6-1.37.9-2.277.9-.906 0-1.667-.3-2.285-.9zm7.782.813v-5.15h-1.817v-.908h4.587v.908h-1.818v5.15h-.952zm2.517 0l2.423-6.058h1.039l2.423 6.058h-.995l-.606-1.558h-2.683l-.606 1.558h-.995zm1.947-2.423h1.99l-.995-2.51-.995 2.51zm6.447 2.423v-6.058H39.9c.53 0 .966.155 1.307.467.34.312.51.689.51 1.134 0 .358-.124.672-.372.943-.098.11-.219.199-.363.269.196.075.369.184.519.328.346.3.52.681.52 1.143 0 .485-.191.903-.572 1.255-.375.346-.848.519-1.42.519h-2.553zm.952-.822h1.602c.305 0 .554-.095.744-.286a.948.948 0 00.294-.709.949.949 0 00-.294-.71c-.19-.191-.439-.286-.744-.286h-1.602v1.991zm0-2.77H39.9c.26 0 .467-.075.623-.225a.794.794 0 00.242-.597.769.769 0 00-.242-.589c-.156-.155-.364-.233-.623-.233h-1.472v1.644zm6.748 3.592v-6.058h.953v2.942l2.726-2.942h1.212l-2.337 2.51 2.51 3.548H49.07l-1.99-2.856-.952 1.039v1.817h-.953zm5.147 0l2.423-6.058h1.039l2.423 6.058h-.995l-.606-1.558h-2.683l-.606 1.558h-.995zm1.947-2.423h1.99l-.995-2.51-.995 2.51zm4.027 2.423l2.51-3.548-2.337-2.51h1.211l2.38 2.553v-2.553h.953v2.553l2.38-2.553h1.212l-2.337 2.51 2.51 3.548h-1.169l-1.99-2.856-.606.649v2.207h-.952v-2.207l-.606-.649-1.991 2.856h-1.168zm8.486 1.299v-2.208h.346c.196-.19.37-.441.52-.753.346-.68.519-1.54.519-2.579v-1.817h3.938v5.149h.736v2.208h-.953v-1.299h-4.154v1.299h-.952zm1.385-2.208h2.986v-4.241h-2.034v.909c0 1.004-.159 1.864-.476 2.579a3.06 3.06 0 01-.476.753zm6.964-3.713c-.433.433-.65.964-.65 1.593s.217 1.163.65 1.601c.438.433.972.649 1.601.649.63 0 1.16-.216 1.593-.649.438-.438.657-.972.657-1.601s-.219-1.16-.657-1.593a2.152 2.152 0 00-1.593-.657 2.18 2.18 0 00-1.601.657zm-.684 3.809c-.612-.606-.917-1.345-.917-2.216 0-.871.305-1.607.917-2.207.617-.606 1.38-.909 2.285-.909.906 0 1.665.303 2.276.909.618.6.927 1.336.927 2.207 0 .871-.31 1.61-.927 2.216-.611.6-1.37.9-2.276.9-.906 0-1.668-.3-2.285-.9zm6.826.813v-6.058h.952v4.457l3.332-4.457h.866v6.058h-.952v-4.457l-3.333 4.457h-.865zm1.298-8.049h.65a.589.589 0 00.605.606.589.589 0 00.606-.606h.65c0 .346-.12.635-.356.865-.236.231-.536.347-.9.347-.363 0-.663-.116-.9-.347a1.157 1.157 0 01-.355-.865zm6.534 9.348v-2.208h.346c.196-.19.37-.441.52-.753.346-.68.519-1.54.519-2.579v-1.817h3.938v5.149h.736v2.208h-.953v-1.299h-4.154v1.299h-.952zm1.385-2.208h2.986v-4.241h-2.034v.909c0 1.004-.159 1.864-.476 2.579a3.06 3.06 0 01-.476.753zm5.752.909v-6.058h4.284v.908h-3.332v1.558h2.64v.909h-2.64v1.774h3.42v.909h-4.372zm6.755 0v-5.15h-1.818v-.908h4.587v.908h-1.817v5.15h-.952zm2.516 0l2.424-6.058h1.038l2.424 6.058h-.996l-.605-1.558h-2.684l-.606 1.558h-.995zm1.948-2.423h1.99l-.995-2.51-.995 2.51zm3.983 2.38v-.866a1.257 1.257 0 00.476.087.658.658 0 00.407-.13c.121-.092.233-.254.337-.485.11-.23.193-.579.251-1.047.058-.473.087-1.059.087-1.757v-1.817h4.111v6.058h-.952v-5.15h-2.207v.909c0 .693-.032 1.296-.095 1.809-.058.514-.142.929-.251 1.246a2.344 2.344 0 01-.399.771c-.161.19-.331.323-.51.398a1.63 1.63 0 01-.606.104c-.179 0-.335-.02-.468-.061l-.181-.069zm7.4.043v-6.058h.952v4.457l3.332-4.457h.866v6.058h-.952v-4.457l-3.332 4.457h-.866z" fill="#fff"/></svg>